<svg width="25" height="30" viewBox="0 0 25 30" fill="none" xmlns="http://www.w3.org/2000/svg">
<g clip-path="url(#clip0_450_451)">
<path d="M22.793 6.9913V24.417C22.793 26.8663 21.5742 28.085 19.1602 28.085H10.9705C12.9659 27.8057 15.0392 27.3915 17.3555 26.7491C19.7344 26.0694 20.8242 24.5459 20.8242 21.8155V4.65927C20.8242 4.26167 20.7939 3.88655 20.732 3.53809C22.1028 3.99531 22.793 5.14823 22.793 6.9913Z" fill="white"/>
<path d="M1.59375 24.0538C1.59375 26.0928 2.85938 27.1475 5.02734 27.0186C8.96484 26.8077 12.4453 26.4444 16.9219 25.2139C18.5859 24.7452 19.2305 23.8663 19.2305 21.8155V4.65925C19.2305 2.32722 17.9766 1.1905 15.7266 1.71784C12.4453 2.45612 8.96484 3.04206 4.74609 3.28815C2.84766 3.40534 1.59375 4.48347 1.59375 6.60456V24.0538ZM3.48047 23.7139V6.55769C3.48047 5.57331 4.08984 5.18659 4.96875 5.13972C9 4.92878 12.4102 4.34284 15.6211 3.61628C16.7109 3.37019 17.3438 3.93269 17.3438 4.98737V21.7452C17.3438 22.8233 16.9805 23.3038 16.0781 23.5381C12.4102 24.5577 9 24.9327 5.10938 25.1319C4.08984 25.1788 3.48047 24.6631 3.48047 23.7139Z" fill="white"/>
<path d="M6.05859 9.28815C9.375 9.07722 12.0469 8.62019 14.7773 8.01081C15.3164 7.89362 15.4453 7.62409 15.4453 7.29597C15.4453 6.93269 15.1641 6.61628 14.6484 6.72175C12.0469 7.29597 9.375 7.76472 6.05859 7.97565C5.58984 8.01081 5.37891 8.29206 5.37891 8.65534C5.37891 9.03034 5.66016 9.31159 6.05859 9.28815ZM6.05859 13.0616C9.375 12.8506 12.0469 12.3819 14.7773 11.7842C15.3164 11.667 15.4453 11.3975 15.4453 11.0694C15.4453 10.7061 15.1641 10.3897 14.6484 10.4952C12.0469 11.0694 9.375 11.5381 6.05859 11.7491C5.58984 11.7842 5.37891 12.0655 5.37891 12.417C5.37891 12.792 5.66016 13.085 6.05859 13.0616ZM6.05859 16.835C9.375 16.6241 12.0469 16.1553 14.7773 15.5577C15.3164 15.4405 15.4453 15.1709 15.4453 14.8428C15.4453 14.4795 15.1641 14.1631 14.6484 14.2686C12.0469 14.8428 9.375 15.3116 6.05859 15.5225C5.58984 15.5577 5.37891 15.8389 5.37891 16.1905C5.37891 16.5655 5.66016 16.8584 6.05859 16.835ZM6.05859 20.5967C7.98047 20.4913 9.25781 20.3038 10.5234 20.1045C10.9102 20.0342 11.1211 19.7295 11.1211 19.4249C11.1211 19.0733 10.8398 18.7334 10.3125 18.8272C9.1875 19.003 7.94531 19.1788 6.05859 19.2842C5.58984 19.3194 5.37891 19.6006 5.37891 19.9522C5.37891 20.3272 5.66016 20.6202 6.05859 20.5967Z" fill="white"/>
</g>
<defs>
<clipPath id="clip0_450_451">
<rect width="24.7383" height="29.3224" fill="white"/>
</clipPath>
</defs>
</svg>
