<svg width="22" height="7" viewBox="0 0 22 7" fill="none" xmlns="http://www.w3.org/2000/svg">
<g clip-path="url(#clip0_111_74)">
<path d="M0.729004 2.21484L8.73291 5.34375C9.27197 5.55469 9.9165 5.8125 10.4438 5.8125C10.9595 5.8125 11.6157 5.55469 12.1548 5.34375L20.1469 2.21484C20.5923 2.03906 20.8852 1.64062 20.8852 1.20703C20.8852 0.515625 20.3813 0 19.7016 0C19.3501 0 18.8813 0.199219 18.5884 0.304688L9.61181 3.83203H11.2641L2.2876 0.304688C1.99463 0.199219 1.5376 0 1.17431 0C0.494629 0 -0.00927734 0.515625 -0.00927734 1.20703C-0.00927734 1.64062 0.283692 2.03906 0.729004 2.21484Z" fill="white"/>
</g>
<defs>
<clipPath id="clip0_111_74">
<rect width="21.2461" height="6.41016" fill="white" transform="translate(-0.00927734)"/>
</clipPath>
</defs>
</svg>
