<svg width="24" height="23" viewBox="0 0 24 23" fill="none" xmlns="http://www.w3.org/2000/svg">
<g clip-path="url(#clip0_159_498)">
<path d="M0.929979 7.49052C1.55223 7.49052 1.88098 7.1383 1.88098 6.52778V3.75698C1.88098 2.53595 2.52671 1.91369 3.70078 1.91369H6.54203C7.16429 1.91369 7.50477 1.57321 7.50477 0.962694C7.50477 0.352177 7.16429 0.0234375 6.54203 0.0234375H3.6773C1.2235 0.0234375 -0.00927734 1.23273 -0.00927734 3.65131V6.52778C-0.00927734 7.1383 0.331203 7.49052 0.929979 7.49052ZM22.028 7.49052C22.6503 7.49052 22.979 7.1383 22.979 6.52778V3.65131C22.979 1.23273 21.7462 0.0234375 19.2924 0.0234375H16.4159C15.8055 0.0234375 15.465 0.352177 15.465 0.962694C15.465 1.57321 15.8055 1.91369 16.4159 1.91369H19.2572C20.4195 1.91369 21.0888 2.53595 21.0888 3.75698V6.52778C21.0888 7.1383 21.4292 7.49052 22.028 7.49052ZM3.6773 23H6.54203C7.16429 23 7.50477 22.6595 7.50477 22.0607C7.50477 21.4503 7.16429 21.1097 6.54203 21.1097H3.70078C2.52671 21.1097 1.88098 20.4875 1.88098 19.2665V16.4956C1.88098 15.8734 1.5405 15.5329 0.929979 15.5329C0.319462 15.5329 -0.00927734 15.8734 -0.00927734 16.4956V19.3603C-0.00927734 21.7907 1.2235 23 3.6773 23ZM16.4159 23H19.2924C21.7462 23 22.979 21.779 22.979 19.3603V16.4956C22.979 15.8734 22.6386 15.5329 22.028 15.5329C21.4175 15.5329 21.0888 15.8734 21.0888 16.4956V19.2665C21.0888 20.4875 20.4195 21.1097 19.2572 21.1097H16.4159C15.8055 21.1097 15.465 21.4503 15.465 22.0607C15.465 22.6595 15.8055 23 16.4159 23Z" fill="white"/>
<path d="M7.01177 10.7193C7.56358 10.7193 7.96276 10.3318 7.96276 9.76828V8.17154C7.96276 7.60799 7.56358 7.22054 7.01177 7.22054C6.45995 7.22054 6.07251 7.60799 6.07251 8.17154V9.76828C6.07251 10.3318 6.45995 10.7193 7.01177 10.7193ZM10.5458 13.49C10.5692 13.49 10.6045 13.49 10.6396 13.49C11.8255 13.49 12.4712 12.8443 12.4712 11.6585V7.96021C12.4712 7.50232 12.1659 7.2088 11.7198 7.2088C11.2502 7.2088 10.9449 7.50232 10.9449 7.96021V11.7642C10.9449 11.8816 10.8745 11.9403 10.7688 11.9403H10.3579C9.9352 11.9403 9.60647 12.2691 9.60647 12.6917C9.60647 13.1966 9.94694 13.49 10.5458 13.49ZM15.9229 10.7193C16.463 10.7193 16.8505 10.3318 16.8505 9.76828V8.17154C16.8505 7.60799 16.463 7.22054 15.9229 7.22054C15.3594 7.22054 14.9719 7.60799 14.9719 8.17154V9.76828C14.9719 10.3318 15.3594 10.7193 15.9229 10.7193ZM11.4145 17.4349C12.8351 17.4349 14.2675 16.8245 15.2889 15.803C15.4299 15.6738 15.5003 15.4742 15.5003 15.2394C15.5003 14.7933 15.1715 14.4763 14.7372 14.4763C14.5141 14.4763 14.3497 14.5584 14.1267 14.7933C13.4808 15.4625 12.4594 15.9204 11.4145 15.9204C10.4283 15.9204 9.39513 15.486 8.71417 14.7933C8.52632 14.6171 8.37369 14.4763 8.09192 14.4763C7.6575 14.4763 7.32877 14.7933 7.32877 15.2394C7.32877 15.4391 7.39921 15.6269 7.55185 15.7912C8.50283 16.8714 9.99391 17.4349 11.4145 17.4349Z" fill="white"/>
</g>
<defs>
<clipPath id="clip0_159_498">
<rect width="23.3405" height="23" fill="white" transform="translate(-0.00927734)"/>
</clipPath>
</defs>
</svg>
