<svg width="109" height="120" viewBox="0 0 109 120" fill="none" xmlns="http://www.w3.org/2000/svg">
<g clip-path="url(#clip0_1_6)">
<path d="M52.4815 0.0562497C51.3062 0.16875 49.5479 0.4125 48.7136 0.571875C36.2795 3.0375 26.4381 13.2375 23.9979 26.1844C23.5494 28.5656 23.4686 29.5687 23.4686 32.5312C23.4686 35.4094 23.5494 36.3844 23.962 38.625C25.9716 49.5187 33.1665 58.6313 42.972 62.7C47.1616 64.4344 51.369 65.1656 55.9802 64.9594C70.1099 64.3125 82.1313 53.5781 84.9572 39.0937C85.4596 36.4969 85.5313 35.6531 85.5313 32.4844C85.5313 29.4562 85.4685 28.6781 85.0379 26.3438C83.6295 18.75 79.7001 11.9438 73.9047 7.11562C69.3563 3.31875 64.0184 0.99375 58.1333 0.225C57.0657 0.0843747 53.3337 -0.0187503 52.4815 0.0562497Z" fill="white"/>
<path d="M29.919 74.1281C20.5711 74.5125 11.9498 79.2188 6.28893 87.0281C3.35535 91.0781 1.30094 95.9813 0.493537 100.875C0.0629194 103.481 0.0629194 103.434 0.0270347 111.909L-0.0088501 120H54.5001H109.009L108.973 111.909C108.937 103.322 108.937 103.378 108.471 100.669C107.152 93.1219 103.178 86.1656 97.3824 81.2906C94.2246 78.6375 90.672 76.6781 86.8413 75.4781C83.3963 74.4 80.7319 74.0625 75.5286 74.0625H72.8731L72.6847 74.6063C72.4156 75.3656 71.671 76.6313 71.052 77.3813C68.4683 80.5031 64.0365 82.3781 57.8195 82.9688C56.4289 83.1 52.5713 83.1 51.1808 82.9688C44.0666 82.2938 39.2222 79.9031 36.9704 75.9563C36.7192 75.5063 36.4232 74.8969 36.3155 74.6063L36.1271 74.0625L33.3371 74.0813C31.803 74.0906 30.2689 74.1094 29.919 74.1281Z" fill="white"/>
</g>
<defs>
<clipPath id="clip0_1_6">
<rect width="109" height="120" fill="white"/>
</clipPath>
</defs>
</svg>
