<svg width="25" height="24" viewBox="0 0 25 24" fill="none" xmlns="http://www.w3.org/2000/svg">
<path d="M11.9531 23.9062C18.5508 23.9062 23.9062 18.5508 23.9062 11.9531C23.9062 5.35547 18.5508 0 11.9531 0C5.35547 0 0 5.35547 0 11.9531C0 18.5508 5.35547 23.9062 11.9531 23.9062ZM11.9531 21.9141C6.44531 21.9141 1.99219 17.4609 1.99219 11.9531C1.99219 6.44531 6.44531 1.99219 11.9531 1.99219C17.4609 1.99219 21.9141 6.44531 21.9141 11.9531C21.9141 17.4609 17.4609 21.9141 11.9531 21.9141Z" fill="white" fill-opacity="0.85"/>
<path d="M9.90234 18.5156H14.6719C15.1523 18.5156 15.5273 18.1641 15.5273 17.6836C15.5273 17.2266 15.1523 16.8633 14.6719 16.8633H13.2188V10.8984C13.2188 10.2656 12.9023 9.84375 12.3047 9.84375H10.1016C9.62108 9.84375 9.24609 10.207 9.24609 10.6641C9.24609 11.1445 9.62108 11.4961 10.1016 11.4961H11.3555V16.8633H9.90234C9.42188 16.8633 9.04688 17.2266 9.04688 17.6836C9.04688 18.1641 9.42188 18.5156 9.90234 18.5156ZM11.8477 7.89844C12.7031 7.89844 13.3711 7.21875 13.3711 6.36328C13.3711 5.50781 12.7031 4.82812 11.8477 4.82812C11.0039 4.82812 10.3242 5.50781 10.3242 6.36328C10.3242 7.21875 11.0039 7.89844 11.8477 7.89844Z" fill="white" fill-opacity="0.85"/>
</svg>
