<?xml version="1.0" encoding="UTF-8"?>
<!--Generator: Apple Native CoreSVG 326-->
<!DOCTYPE svg
PUBLIC "-//W3C//DTD SVG 1.1//EN"
       "http://www.w3.org/Graphics/SVG/1.1/DTD/svg11.dtd">
<svg version="1.1" xmlns="http://www.w3.org/2000/svg" xmlns:xlink="http://www.w3.org/1999/xlink" viewBox="0 0 41.1211 27.7691">
 <g>
  <rect height="27.7691" opacity="0" width="41.1211" x="0" y="0"/>
  <path d="M38.7422 0.425568C40.2539 2.46463 41.1211 5.32401 41.1211 8.21854C41.1211 11.1131 40.2422 13.949 38.7422 16.0115C38.4258 16.4568 37.8867 16.5623 37.4531 16.2693C37.0312 15.9763 36.9609 15.4256 37.2891 14.9451C38.5547 13.117 39.3047 10.7146 39.3047 8.21854C39.3047 5.72244 38.5781 3.29666 37.2891 1.49197C36.9492 1.01151 37.0312 0.460725 37.4531 0.167756C37.8867-0.125213 38.4258-0.031463 38.7422 0.425568Z" fill="black" fill-opacity="0.85"/>
  <path d="M34.3711 3.48416C35.2734 4.69119 35.8125 6.42557 35.8125 8.21854C35.8125 10.0115 35.2734 11.7576 34.3711 12.9412C34.0547 13.3982 33.5039 13.4803 33.1172 13.2107C32.6367 12.8709 32.5781 12.3084 32.9297 11.8162C33.5977 10.867 33.9961 9.57791 33.9961 8.21854C33.9961 6.85916 33.6094 5.55838 32.9297 4.62088C32.5664 4.14041 32.6367 3.55447 33.1172 3.22635C33.5039 2.9451 34.0547 3.03885 34.3711 3.48416Z" fill="black" fill-opacity="0.85"/>
  <path d="M15.9629 16.6862C15.4787 17.0835 15.0473 17.5114 14.6759 17.9605C13.5793 17.3916 12.29 17.0545 10.9336 17.0545C7.10156 17.0545 3.78516 19.7615 3.78516 22.6678C3.78516 22.9021 3.90234 22.9959 4.13672 22.9959L12.6155 22.9959C12.633 23.6458 12.8019 24.2356 13.1379 24.7303L4.42969 24.7303C2.83594 24.7303 2.03906 24.0857 2.03906 22.7732C2.03906 18.8826 6.02344 15.3201 10.9336 15.3201C12.8027 15.3201 14.535 15.8339 15.9629 16.6862ZM15.3398 9.15604C15.3398 11.8162 13.3594 13.9842 10.9453 13.9842C8.53125 13.9842 6.55078 11.8279 6.55078 9.17947C6.55078 6.58963 8.53125 4.45682 10.9453 4.45682C13.3828 4.45682 15.3398 6.55447 15.3398 9.15604ZM8.29688 9.17947C8.29688 10.867 9.51562 12.2381 10.9453 12.2381C12.3867 12.2381 13.6055 10.867 13.6055 9.15604C13.6055 7.50369 12.4219 6.20291 10.9453 6.20291C9.50391 6.20291 8.29688 7.52713 8.29688 9.17947Z" fill="black" fill-opacity="0.85"/>
  <path d="M24.4453 13.8787C27.2344 13.8787 29.5078 11.406 29.5078 8.3826C29.5078 5.3826 27.2461 3.02713 24.4453 3.02713C21.668 3.02713 19.3828 5.42947 19.3828 8.40604C19.3828 11.4178 21.668 13.8787 24.4453 13.8787ZM24.4453 12.1092C22.7344 12.1092 21.2695 10.4803 21.2695 8.40604C21.2695 6.36697 22.7109 4.79666 24.4453 4.79666C26.1914 4.79666 27.6211 6.33182 27.6211 8.3826C27.6211 10.4568 26.1797 12.1092 24.4453 12.1092ZM17.0859 24.7303L31.8047 24.7303C33.75 24.7303 34.6758 24.1443 34.6758 22.8553C34.6758 19.7849 30.7969 15.3435 24.4453 15.3435C18.082 15.3435 14.2031 19.7849 14.2031 22.8553C14.2031 24.1443 15.1289 24.7303 17.0859 24.7303ZM16.5234 22.9607C16.2188 22.9607 16.0898 22.8787 16.0898 22.6326C16.0898 20.699 19.0664 17.1131 24.4453 17.1131C29.8125 17.1131 32.7891 20.699 32.7891 22.6326C32.7891 22.8787 32.6719 22.9607 32.3672 22.9607Z" fill="black" fill-opacity="0.85"/>
 </g>
</svg>
