<?xml version="1.0" encoding="UTF-8"?>
<!--Generator: Apple Native CoreSVG 232.5-->
<!DOCTYPE svg
PUBLIC "-//W3C//DTD SVG 1.1//EN"
       "http://www.w3.org/Graphics/SVG/1.1/DTD/svg11.dtd">
<svg version="1.1" xmlns="http://www.w3.org/2000/svg" xmlns:xlink="http://www.w3.org/1999/xlink" width="24.2578" height="23.918">
 <g>
  <rect height="23.918" opacity="0" width="24.2578" x="0" y="0"/>
  <path d="M23.9062 11.9648C23.9062 18.5039 18.4922 23.918 11.9531 23.918C5.42578 23.918 0 18.5039 0 11.9648C0 5.4375 5.41406 0.0117188 11.9414 0.0117188C18.4805 0.0117188 23.9062 5.4375 23.9062 11.9648ZM5.71875 17.3438C5.71875 17.7891 5.94141 18.1055 6.43359 18.1055L17.4727 18.1055C17.9648 18.1055 18.1875 17.7891 18.1875 17.3438C18.1875 16.0312 16.1953 12.5977 11.9531 12.5977C7.71094 12.5977 5.71875 16.0312 5.71875 17.3438ZM8.84766 8.20312C8.84766 10.1484 10.2422 11.5898 11.9531 11.6016C13.6641 11.6133 15.0586 10.1484 15.0586 8.20312C15.0586 6.39844 13.6641 4.89844 11.9531 4.89844C10.2422 4.89844 8.84766 6.39844 8.84766 8.20312Z" fill="#000000"/>
 </g>
</svg>
