<svg width="24" height="24" viewBox="0 0 24 24" fill="none" xmlns="http://www.w3.org/2000/svg">
<path d="M22.1175 1.51121C20.8112 0.20491 18.967 0 16.777 0H6.80044C4.64889 0 2.8047 0.20491 1.4984 1.51121C0.192102 2.8175 0 4.64889 0 6.80045V16.777C0 18.967 0.192102 20.7983 1.4984 22.1047C2.8047 23.411 4.64889 23.6159 6.82605 23.6159H16.777C18.967 23.6159 20.8112 23.411 22.1175 22.1047C23.4237 20.7983 23.6159 18.967 23.6159 16.777V6.82605C23.6159 4.63609 23.4237 2.8175 22.1175 1.51121ZM21.554 6.48027V17.1356C21.554 18.4547 21.3874 19.825 20.6063 20.5935C19.8378 21.3747 18.4547 21.554 17.1356 21.554H6.48027C5.16116 21.554 3.77802 21.3747 2.99681 20.5935C2.22839 19.825 2.0619 18.4547 2.0619 17.1356V6.51869C2.0619 5.16117 2.22839 3.79083 2.99681 3.00962C3.77802 2.2412 5.17397 2.06191 6.51868 2.06191H17.1356C18.4547 2.06191 19.8378 2.2412 20.6063 3.02241C21.3874 3.79083 21.554 5.16117 21.554 6.48027Z" fill="white"/>
<path d="M15.8292 14.9838C16.3927 14.9838 16.764 14.5484 16.764 13.9592V7.91442C16.764 7.15881 16.3542 6.86426 15.7011 6.86426H9.61784C9.01592 6.86426 8.63172 7.23565 8.63172 7.79916C8.63172 8.36266 9.02873 8.73406 9.64346 8.73406H11.9743L13.8697 8.52915L11.8719 10.3861L7.15893 15.1118C6.97963 15.2912 6.85156 15.5474 6.85156 15.8034C6.85156 16.3798 7.22297 16.7511 7.78646 16.7511C8.09383 16.7511 8.33716 16.6359 8.51646 16.4566L13.2294 11.7437L15.0736 9.77142L14.8815 11.7693V13.9849C14.8815 14.5868 15.2528 14.9838 15.8292 14.9838Z" fill="white"/>
</svg>
