<?xml version="1.0" encoding="UTF-8"?>
<!--Generator: Apple Native CoreSVG 232.5-->
<!DOCTYPE svg
PUBLIC "-//W3C//DTD SVG 1.1//EN"
       "http://www.w3.org/Graphics/SVG/1.1/DTD/svg11.dtd">
<svg version="1.1" xmlns="http://www.w3.org/2000/svg" xmlns:xlink="http://www.w3.org/1999/xlink" width="24.2578" height="28.4626">
 <g>
  <rect height="28.4626" opacity="0" width="24.2578" x="0" y="0"/>
  <path d="M0 14.2254C0 20.7645 5.42578 26.1785 11.9531 26.1785C18.4922 26.1785 23.9062 20.7645 23.9062 14.2254C23.9062 8.45979 19.6992 3.57307 14.2148 2.49495L14.2148 0.830886C14.2148-0.00114509 13.6406-0.223801 13.0078 0.23323L9.26953 2.84651C8.73047 3.22151 8.71875 3.78401 9.26953 4.17073L12.9961 6.79573C13.6406 7.26448 14.2148 7.04182 14.2148 6.19807L14.2148 4.53401C18.6445 5.54182 21.9023 9.47932 21.9023 14.2254C21.9023 19.7567 17.4844 24.1864 11.9531 24.1864C6.42188 24.1864 1.98047 19.7567 1.99219 14.2254C2.00391 10.8973 3.62109 7.95589 6.11719 6.17464C6.59766 5.81135 6.75 5.26057 6.45703 4.76839C6.16406 4.28792 5.51953 4.15901 5.00391 4.55745C1.99219 6.74885 0 10.2879 0 14.2254Z" fill="#000000" />
  <path d="M6.375 12.3153L12.2344 12.3153L12.2344 10.7684L6.375 10.7684C5.92969 10.7684 5.57812 11.1199 5.57812 11.5418C5.57812 11.9754 5.92969 12.3153 6.375 12.3153ZM13.875 13.909C15.1758 13.909 16.2422 12.8426 16.2422 11.5301C16.2422 10.2293 15.1758 9.16292 13.875 9.16292C12.5625 9.16292 11.4961 10.2293 11.4961 11.5301C11.4961 12.8426 12.5625 13.909 13.875 13.909ZM13.875 12.702C13.207 12.702 12.7148 12.1864 12.7148 11.5301C12.7148 10.8621 13.207 10.3699 13.875 10.3699C14.5195 10.3699 15.0352 10.8621 15.0352 11.5301C15.0352 12.1864 14.5195 12.702 13.875 12.702ZM15.4102 12.3153L17.5781 12.3153C17.9766 12.3153 18.3281 11.9754 18.3281 11.5418C18.3281 11.1199 17.9766 10.7684 17.5781 10.7684L15.4102 10.7684ZM6.32812 18.6551L8.49609 18.6551L8.49609 17.1082L6.32812 17.1082C5.92969 17.1082 5.57812 17.4481 5.57812 17.8699C5.57812 18.3035 5.92969 18.6551 6.32812 18.6551ZM10.0312 20.2489C11.3555 20.2489 12.4219 19.1824 12.4219 17.8699C12.4219 16.5574 11.3555 15.491 10.0312 15.491C8.73047 15.491 7.66406 16.5574 7.66406 17.8699C7.66406 19.1824 8.73047 20.2489 10.0312 20.2489ZM10.0312 19.0418C9.38672 19.0418 8.87109 18.5262 8.87109 17.8582C8.87109 17.202 9.38672 16.6981 10.0312 16.6981C10.6992 16.6981 11.2148 17.202 11.2148 17.8582C11.2148 18.5262 10.6992 19.0418 10.0312 19.0418ZM11.6719 18.6551L17.5312 18.6551C17.9766 18.6551 18.3281 18.3035 18.3281 17.8699C18.3281 17.4481 17.9766 17.1082 17.5312 17.1082L11.6719 17.1082Z" fill="#000000"/>
 </g>
</svg>
