<svg width="30" height="30" viewBox="0 0 30 30" fill="none" xmlns="http://www.w3.org/2000/svg">
<g clip-path="url(#clip0_56_65)">
<path d="M29.5652 15.3798C29.5652 23.3637 22.8696 30 14.7826 30C6.71015 30 0 23.3637 0 15.3798C0 7.38176 6.69565 0.759674 14.7681 0.759674C22.8551 0.759674 29.5652 7.38176 29.5652 15.3798ZM16.6667 10.4778V11.9828H19C19.6522 11.9828 19.9856 12.2982 19.9856 12.9576V20.1242C19.9856 20.7836 19.6522 21.1132 19 21.1132H10.5652C9.91304 21.1132 9.57971 20.7979 9.57971 20.1242V12.9576C9.57971 12.2982 9.91304 11.9828 10.5652 11.9828H12.8986V10.4778H10.5507C8.94204 10.4778 8.07246 11.3091 8.07246 12.9002V20.1673C8.07246 21.7583 8.94204 22.604 10.5507 22.604H19.0145C20.6377 22.604 21.4928 21.7726 21.4928 20.1673V12.9002C21.4928 11.2948 20.6377 10.4778 19.0145 10.4778H16.6667ZM14.2463 5.96274L11.7536 8.35644C11.5797 8.51411 11.5362 8.67177 11.5362 8.85811C11.5362 9.24511 11.8261 9.50312 12.2029 9.50312C12.4203 9.50312 12.6087 9.43146 12.7392 9.28812L13.4058 8.61444L14.0725 7.89776L14.0435 8.61444V16.0822C14.0435 16.4836 14.3768 16.7989 14.7826 16.7989C15.1884 16.7989 15.5362 16.4836 15.5362 16.0822V8.61444L15.4927 7.89776L16.145 8.61444L16.8261 9.30245C16.942 9.43146 17.1305 9.50312 17.3478 9.50312C17.7537 9.50312 18.0434 9.24511 18.0434 8.85811C18.0434 8.65744 17.9856 8.49977 17.8116 8.35644L15.3044 5.96274C15.1305 5.79075 14.9566 5.71907 14.7826 5.71907C14.5942 5.71907 14.4204 5.79075 14.2463 5.96274Z" fill="white" fill-opacity="1.0"/>
</g>
<defs>
<clipPath id="clip0_56_65">
<rect width="30" height="30" fill="white"/>
</clipPath>
</defs>
</svg>
