<?xml version="1.0" encoding="UTF-8"?>
<!--Generator: Apple Native CoreSVG 232.5-->
<!DOCTYPE svg
PUBLIC "-//W3C//DTD SVG 1.1//EN"
       "http://www.w3.org/Graphics/SVG/1.1/DTD/svg11.dtd">
<svg version="1.1" xmlns="http://www.w3.org/2000/svg" xmlns:xlink="http://www.w3.org/1999/xlink" width="30.3867" height="20.9883">
 <g>
  <rect height="20.9883" opacity="0" width="30.3867" x="0" y="0"/>
  <path d="M21.3633 13.5C21.3633 10.0312 18.4922 7.13672 15.0234 7.13672C11.543 7.13672 8.67188 10.0312 8.67188 13.5C8.67188 14.3555 8.84766 15.1641 9.17578 15.9023L20.8594 15.9023C21.1875 15.1641 21.3633 14.3555 21.3633 13.5ZM2.54297 14.168L5.42578 14.168C6.03516 14.168 6.49219 13.7461 6.48047 13.2188C6.46875 12.6914 6.02344 12.2695 5.42578 12.2695L2.54297 12.2695C1.93359 12.2695 1.5 12.6914 1.5 13.2188C1.5 13.7461 1.93359 14.168 2.54297 14.168ZM7.55859 7.40625C7.98047 7.83984 8.61328 7.85156 8.97656 7.47656C9.33984 7.10156 9.33984 6.48047 8.90625 6.05859L6.86719 4.01953C6.43359 3.57422 5.83594 3.59766 5.46094 3.96094C5.08594 4.32422 5.07422 4.93359 5.51953 5.36719ZM21.0586 7.47656C21.4336 7.83984 22.0547 7.83984 22.4766 7.40625L24.5156 5.36719C24.9609 4.93359 24.9375 4.33594 24.5742 3.96094C24.2109 3.58594 23.6016 3.57422 23.168 4.01953L21.1289 6.05859C20.6953 6.48047 20.6836 7.11328 21.0586 7.47656ZM24.6094 14.168L27.4922 14.168C28.1016 14.168 28.5352 13.7461 28.5352 13.2188C28.5352 12.6914 28.1016 12.2695 27.4922 12.2695L24.6094 12.2695C24.0117 12.2695 23.543 12.6914 23.5547 13.2188C23.5664 13.7461 24.0117 14.168 24.6094 14.168ZM15.0234 4.98047C15.5391 4.96875 15.9727 4.52344 15.9727 3.92578L15.9727 1.04297C15.9727 0.433594 15.5391 0 15.0234 0C14.4961 0 14.0625 0.433594 14.0625 1.04297L14.0625 3.92578C14.0625 4.52344 14.4961 4.99219 15.0234 4.98047Z" fill="#ffffff" fill-opacity="0.85"/>
  <path d="M1.01953 19.1484L29.0156 19.1484C29.5664 19.1484 30.0352 18.7266 30.0352 18.2109C30.0352 17.6953 29.5664 17.2734 29.0156 17.2734L1.01953 17.2734C0.46875 17.2734 0 17.6953 0 18.2109C0 18.7266 0.46875 19.1484 1.01953 19.1484Z" fill="#ffffff" fill-opacity="0.85"/>
 </g>
</svg>
