<?xml version="1.0" encoding="UTF-8"?>
<!--Generator: Apple Native CoreSVG 326-->
<!DOCTYPE svg
PUBLIC "-//W3C//DTD SVG 1.1//EN"
       "http://www.w3.org/Graphics/SVG/1.1/DTD/svg11.dtd">
<svg version="1.1" xmlns="http://www.w3.org/2000/svg" xmlns:xlink="http://www.w3.org/1999/xlink" viewBox="0 0 24.2578 23.918">
 <g>
  <rect height="23.918" opacity="0" width="24.2578" x="0" y="0"/>
  <path d="M11.9531 23.9062C18.5508 23.9062 23.9062 18.5508 23.9062 11.9531C23.9062 5.35547 18.5508 0 11.9531 0C5.35547 0 0 5.35547 0 11.9531C0 18.5508 5.35547 23.9062 11.9531 23.9062ZM11.9531 21.9141C6.44531 21.9141 1.99219 17.4609 1.99219 11.9531C1.99219 6.44531 6.44531 1.99219 11.9531 1.99219C17.4609 1.99219 21.9141 6.44531 21.9141 11.9531C21.9141 17.4609 17.4609 21.9141 11.9531 21.9141Z" fill="black" fill-opacity="1.0"/>
  <path d="M11.9531 19.3828C16.0547 19.3828 19.3828 16.0547 19.3828 11.9531C19.3828 7.85156 16.0547 4.52344 11.9531 4.52344C7.85156 4.52344 4.52344 7.85156 4.52344 11.9531C4.52344 16.0547 7.85156 19.3828 11.9531 19.3828ZM11.9531 17.4961C8.88281 17.4961 6.41016 15.0234 6.41016 11.9531C6.41016 8.88281 8.88281 6.41016 11.9531 6.41016C15.0234 6.41016 17.4961 8.88281 17.4961 11.9531C17.4961 15.0234 15.0234 17.4961 11.9531 17.4961Z" fill="black" fill-opacity="1.0"/>
  <path d="M11.9531 14.9766C13.6289 14.9766 14.9883 13.6289 14.9883 11.9414C14.9883 10.2656 13.6289 8.90625 11.9531 8.90625C10.2773 8.90625 8.91797 10.2656 8.91797 11.9414C8.91797 13.6289 10.2773 14.9766 11.9531 14.9766Z" fill="black" fill-opacity="1.0"/>
 </g>
</svg>
