<svg width="24" height="23" viewBox="0 0 24 23" fill="none" xmlns="http://www.w3.org/2000/svg">
<g id="scroll 1" clip-path="url(#clip0_159_560)">
<g id="Group">
<path id="Vector" d="M-0.00927734 5.2386C-0.00927734 5.88801 0.423665 6.31013 1.09472 6.31013H3.90885V19.5906C3.90885 21.8636 5.02367 22.9892 7.29662 22.9892H19.6679C21.7244 22.9892 23.0774 21.5822 23.0774 19.4499V16.5059C23.0774 15.8565 22.6444 15.4343 21.9734 15.4343H21.075V3.3986C21.075 1.13647 19.9494 0 17.7197 0H2.82649C1.13802 0 -0.00927734 1.1473 -0.00927734 2.95483V5.2386ZM5.65144 19.6015V2.95483C5.65144 2.51106 5.60814 2.09977 5.52155 1.74259H17.6222C18.7479 1.74259 19.3324 2.33789 19.3324 3.42024V15.4343H10.035C9.36388 15.4343 8.92015 15.8565 8.92015 16.5059V19.6015C8.92015 20.5864 8.23827 21.2466 7.29662 21.2466C6.33332 21.2466 5.65144 20.5539 5.65144 19.6015ZM1.73331 4.56753V2.95483C1.73331 2.19718 2.19872 1.74259 2.82649 1.74259C3.47591 1.74259 3.90885 2.19718 3.90885 2.95483V4.56753H1.73331ZM10.2407 21.2466C10.5112 20.7704 10.6628 20.1859 10.6628 19.4824V17.177H21.3348V19.4499C21.3348 20.5215 20.6637 21.2466 19.6679 21.2466H10.2407ZM8.76862 10.0984H12.6542C13.0439 10.0984 13.3253 9.81695 13.3253 9.44899C13.3253 9.07013 13.0439 8.76708 12.6542 8.76708H8.76862C8.37897 8.76708 8.08673 9.07013 8.08673 9.44899C8.08673 9.81695 8.37897 10.0984 8.76862 10.0984ZM8.76862 6.32095H16.2152C16.6049 6.32095 16.8863 6.02871 16.8863 5.64989C16.8863 5.28189 16.6049 4.98965 16.2152 4.98965H8.76862C8.37897 4.98965 8.08673 5.28189 8.08673 5.64989C8.08673 6.02871 8.37897 6.32095 8.76862 6.32095Z" fill="white"/>
</g>
</g>
<defs>
<clipPath id="clip0_159_560">
<rect width="23.4114" height="23" fill="white" transform="translate(-0.00927734)"/>
</clipPath>
</defs>
</svg>
